<svg xmlns="http://www.w3.org/2000/svg" height="48" viewBox="0 96 960 960" width="48"><path d="m635.043 632.434-65-65.435q21.739-54.912-20.619-89.825-42.358-34.912-83.814-14.608l-62.044-61.609q17-9.305 36.695-13.891 19.696-4.587 40.224-4.587 72.081 0 122.559 50.477 50.477 50.478 50.477 122.559 0 19.963-4.587 41.281-4.586 21.318-13.891 35.638Zm140.609 141.175-51.261-52.261q46.174-35.435 80.348-78.473t52.87-87.291q-52.131-109.888-151.356-175.171Q607.029 315.13 489.4 315.13q-41.402 0-83.738 7.435t-63.183 17.305l-59.957-61.392q34.869-14.869 91.872-27.587 57.003-12.717 110.995-12.717 145.785 0 269.959 84.646Q879.521 407.467 938.565 556q-24.869 66.87-67.304 121.522t-95.609 96.087Zm36.435 230.221-162.13-159.7q-35 14-79.217 21.848-44.217 7.848-90.74 7.848-149.739 0-274.522-84.652Q80.696 704.522 21.435 556q17.87-52.435 54.348-103.065 36.478-50.631 86.347-98.466L37.392 231.696l49.304-50.87L858.39 952.521l-46.304 51.309Zm-596.13-595.395q-35.566 29.695-67.218 69.848-31.652 40.152-46.782 77.717 51.742 111.563 153.854 176.216Q357.923 796.87 488 796.87q28.435 0 57.217-3.783 28.783-3.783 44.609-11.348l-60.783-61.218q-9.434 3.435-22.685 6.218-13.251 2.782-26.358 2.782-71.467 0-122.494-50.027T306.479 556q0-12.606 2.217-25.107 2.217-12.502 5.652-23.936l-98.391-98.522Zm318.695 131.739ZM402.826 605.87Z"/></svg>